# xmcd
#
# Track frame offsets: 
#        150
#        12981
#        28478
#        44965
#        61877
#        76732
#        92209
#        106217
#        123399
#        137375
#        156690
#        173452
#        187409
#        204631
#        221252
#        237387
#        252339
#        266506
#        287670
#
# Disc length: 4019 seconds
#
# Revision: 0
# Processed by: cddbd v1.5.2PL0 Copyright (c) Steve Scherf et al.
# Submitted via: ExactAudioCopy v1.0b3
#
DISCID=1b0fb113
DTITLE=Various Artist - Dance Charts Now! Vol. 2 - CD 1
DYEAR=1900
DGENRE=
TTITLE0=Natural Born Grooves - Candy On The Dancefloor (Radio Edit)
TTITLE1=Eddie Thoneick Feat. Berget Lewis - Forgiveness (Radio Mix)
TTITLE2=Jordan - What If (Radio Mix)
TTITLE3=Selena - Freed From Desire 2007 (Full Radio Mix)
TTITLE4=Wi-Fi Feat. Melanie M. - Be Without You (Radio Edit)
TTITLE5=Enerdizer and Tron - Funky Bastardz (Airplay Edit)
TTITLE6=Grey T. - Get Louder (Fresh Radio Mix)
TTITLE7=Boycott Feat. M. Slice - In My Heart (Winman Radio Edit)
TTITLE8=Cuba Club - La Cumbia (Radio Mix)
TTITLE9=UK Bastard Feat. Jock McPhail - Electrifile (Clubshakerz Rmx E
TTITLE9=dit)
TTITLE10=Chris Galmon Vs. N.D.A. - Africa (Local Tinituzz Meets Voria 
TTITLE10=Radio Mix)
TTITLE11=David Kane - Dream World (Radio Edit)
TTITLE12=Royal Gigolos - High Energy (Radio Mix)
TTITLE13=Scotty - Take Off 2 Paradise (Radio Mix)
TTITLE14=Alexandra Prince - Rising High (Radio Version)
TTITLE15=Vinylshakerz - Forget Me Nots (Screen Cut)
TTITLE16=Masters At Work - Work 2007 (Radio Edit)
TTITLE17=Jumpheadz - Play (Short Vanilla Mix)
TTITLE18=Fantasy Project - Stay (DJ Deamon Rmx Radio Edit)
EXTD=
EXTT0=
EXTT1=
EXTT2=
EXTT3=
EXTT4=
EXTT5=
EXTT6=
EXTT7=
EXTT8=
EXTT9=
EXTT10=
EXTT11=
EXTT12=
EXTT13=
EXTT14=
EXTT15=
EXTT16=
EXTT17=
EXTT18=
PLAYORDER=
